<svg xmlns="http://www.w3.org/2000/svg" viewBox="0 0 408.07 326.75"><title>mobile_view</title><path d="M420.71,344.21c0,.14-91.36.26-204,.26s-204-.12-204-.26S104,344,216.68,344,420.71,344.06,420.71,344.21Z" transform="translate(-12.63 -17.72)" style="fill:#263238"/><path d="M278.42,344.21l-110.92-.07A24.16,24.16,0,0,1,143.35,320l.05-278.09a24.16,24.16,0,0,1,24.18-24.16l110.93.06A24.16,24.16,0,0,1,302.65,42l0,278.1A24.17,24.17,0,0,1,278.42,344.21Z" transform="translate(-12.63 -17.72)" style="fill:#263238"/><path d="M278.39,27.62H256.88a5.34,5.34,0,0,0-5.22,5.45V37a5.34,5.34,0,0,1-5.23,5.46l-41.92,0a5.36,5.36,0,0,1-5.22-5.47V33a5.35,5.35,0,0,0-5.22-5.46h-7.56l-18.83,0a16.92,16.92,0,0,0-16.93,16.92l-.05,271.45a16.91,16.91,0,0,0,16.91,16.92l110.7.07A16.94,16.94,0,0,0,295.25,316l.05-271.44A16.93,16.93,0,0,0,278.39,27.62Z" transform="translate(-12.63 -17.72)" style="fill:#fff"/><path d="M279,55c0,.08-2.79.18-6.24.21s-6.25,0-6.25-.11,2.79-.18,6.24-.21S279,54.94,279,55Z" transform="translate(-12.63 -17.72)" style="fill:#263238"/><path d="M279,58a42.42,42.42,0,0,1-4.34.15c-2.4,0-4.35,0-4.35-.07a42.72,42.72,0,0,1,4.35-.15C277.09,57.87,279,57.9,279,58Z" transform="translate(-12.63 -17.72)" style="fill:#263238"/><path d="M279,61.45a22.3,22.3,0,0,1-2.45.08,20,20,0,0,1-2.44,0s1.09-.07,2.44-.08S279,61.42,279,61.45Z" transform="translate(-12.63 -17.72)" style="fill:#263238"/><path d="M165.39,65.07l.26,0,.73,0L169,65,169,65c0-.59,0-1.24,0-1.93,0-.36,0-.7,0-1.12a1.06,1.06,0,0,1,.91-.84c.44,0,.81,0,1.28,0a1.07,1.07,0,0,1,.9,1c0,.91,0,1.85,0,2.83l-.15-.15,3.37,0-.15.15c0-1.36,0-2.76,0-4.19,0-.36,0-.72,0-1.07a1,1,0,0,0-.47-.78l-1.47-1.45-1.42-1.4-.68-.68c-.24-.23-.42-.46-.69-.51a.87.87,0,0,0-.75.14c-.2.17-.42.41-.63.61l-1.2,1.22c-.76.79-1.56,1.51-2.13,2.19a2.35,2.35,0,0,0-.17,1.24v1.18c0,.73,0,1.36,0,1.91s0,.88,0,1.23a2.3,2.3,0,0,1,0,.44,3.55,3.55,0,0,1,0-.4c0-.34,0-.73,0-1.2s0-1.2-.05-1.93c0-.38,0-.78,0-1.21a2.62,2.62,0,0,1,.18-1.38c.63-.77,1.37-1.44,2.13-2.25l1.2-1.23c.22-.21.39-.42.65-.65a1.16,1.16,0,0,1,1-.19,1.8,1.8,0,0,1,.82.58l.69.68,1.43,1.39,1.47,1.45a1.37,1.37,0,0,1,.56,1c0,.36,0,.71,0,1.07q0,2.16,0,4.2v.15h-.15l-3.36,0h-.15V65c0-1,0-1.92,0-2.82a.8.8,0,0,0-.67-.8c-.38,0-.84,0-1.21,0a.82.82,0,0,0-.71.64c0,.33,0,.73,0,1.08v2H169l-2.71,0h-.71A.94.94,0,0,1,165.39,65.07Z" transform="translate(-12.63 -17.72)" style="fill:#263238"/><rect x="279.06" y="257.37" width="43.16" height="43.16" rx="5.4" ry="5.4" transform="matrix(1, -0.01, 0.01, 1, -14.93, -15.22)" style="fill:#455a64"/><path d="M290.13,277.1l.45.35,1.21,1,4.43,3.64.06.05v.08c-.21,2.2-.46,4.85-.75,7.82l-.32-.2,6.68-4.14.11-.07.11.06,7.2,3.16-.35.29c-.6-2.46-1.22-5-1.86-7.63,0-.11-.06.23.06-.24h0l0,0,0-.05.09-.1.17-.18.33-.38.67-.74,1.32-1.48,2.59-2.88.17.43-7.83-.62h-.13l-.06-.11-3.92-6.81.37,0-3,7.25,0,.08h-.08l-5.63,1.11-1.53.29a4.17,4.17,0,0,1-.56.1l.48-.12,1.47-.35,5.7-1.33-.11.09,2.95-7.29.15-.39.22.37,4,6.78-.19-.12,7.84.59.51,0-.34.38-2.58,2.89-1.32,1.47-.67.75-.34.37-.16.19-.09.1,0,0,0,0h0c.12-.47,0-.13.06-.23.63,2.61,1.25,5.17,1.84,7.63l.12.51-.47-.21-7.18-3.2h.22l-6.71,4.09-.36.22.05-.42c.32-3,.61-5.62.85-7.81l.06.13-4.4-3.87-1.13-1Z" transform="translate(-12.63 -17.72)" style="fill:#fafafa"/><line x1="180.95" y1="310.06" x2="243.35" y2="310.06" style="fill:none;stroke:#000;stroke-miterlimit:10;stroke-width:2px"/><path d="M198,60.37h-1.64v-.6h4v.6h-1.65v4.79H198Z" transform="translate(-12.63 -17.72)" style="fill:#263238"/><path d="M203.85,63.2a1.89,1.89,0,0,1-1.92,2,1.84,1.84,0,0,1-1.86-2,1.89,1.89,0,0,1,1.92-2A1.83,1.83,0,0,1,203.85,63.2Zm-3.07,0c0,.84.49,1.48,1.18,1.48s1.17-.63,1.17-1.5c0-.66-.32-1.49-1.15-1.49S200.78,62.5,200.78,63.24Z" transform="translate(-12.63 -17.72)" style="fill:#263238"/><path d="M208.09,59.49v4.67c0,.35,0,.74,0,1h-.63l0-.67h0a1.44,1.44,0,0,1-1.32.76,1.77,1.77,0,0,1-1.66-2,1.86,1.86,0,0,1,1.74-2.07,1.31,1.31,0,0,1,1.17.59h0V59.49Zm-.71,3.38a1.53,1.53,0,0,0,0-.3,1,1,0,0,0-1-.81c-.72,0-1.15.64-1.15,1.49s.38,1.43,1.14,1.43a1.06,1.06,0,0,0,1-.84,1.39,1.39,0,0,0,0-.3Z" transform="translate(-12.63 -17.72)" style="fill:#263238"/><path d="M211.4,65.16l-.06-.48h0a1.46,1.46,0,0,1-1.19.57A1.1,1.1,0,0,1,209,64.14c0-.94.83-1.45,2.33-1.44v-.08a.8.8,0,0,0-.88-.89,2,2,0,0,0-1,.28l-.16-.46a2.37,2.37,0,0,1,1.27-.34c1.19,0,1.47.8,1.47,1.58v1.45a5.14,5.14,0,0,0,.07.92Zm-.11-2c-.76,0-1.64.12-1.64.87a.62.62,0,0,0,.67.67,1,1,0,0,0,.93-.65.57.57,0,0,0,0-.22Z" transform="translate(-12.63 -17.72)" style="fill:#263238"/><path d="M213.3,61.29l.85,2.29c.09.26.18.56.25.79h0c.08-.23.16-.53.25-.81l.77-2.27h.74l-1,2.76a5.88,5.88,0,0,1-1.33,2.42,1.85,1.85,0,0,1-.86.46l-.18-.59a1.88,1.88,0,0,0,.62-.35,2.12,2.12,0,0,0,.59-.78.51.51,0,0,0,0-.17.59.59,0,0,0,0-.18l-1.43-3.57Z" transform="translate(-12.63 -17.72)" style="fill:#263238"/><rect x="145.93" y="72.03" width="118.15" height="30.86" rx="3.93" ry="3.93" style="fill:#e0e0e0"/><rect x="179.34" y="81.46" width="29.09" height="2.18" style="fill:#fafafa"/><rect x="179.34" y="93.79" width="50.96" height="2.18" style="fill:#fafafa"/><rect x="179.34" y="87.48" width="73.85" height="2.18" style="fill:#fafafa"/><path d="M175.77,106.26a1.91,1.91,0,1,1-1.91-1.9A1.91,1.91,0,0,1,175.77,106.26Z" transform="translate(-12.63 -17.72)" style="fill:#fafafa"/><rect x="145.93" y="108.33" width="118.15" height="30.86" rx="3.93" ry="3.93" style="fill:#e0e0e0"/><rect x="179.34" y="117.76" width="29.09" height="2.18" style="fill:#fafafa"/><rect x="179.34" y="130.09" width="50.96" height="2.18" style="fill:#fafafa"/><rect x="179.34" y="123.78" width="73.85" height="2.18" style="fill:#fafafa"/><path d="M175.77,142.56a1.91,1.91,0,1,1-1.91-1.9A1.91,1.91,0,0,1,175.77,142.56Z" transform="translate(-12.63 -17.72)" style="fill:#fafafa"/><rect x="145.93" y="217.23" width="118.15" height="30.86" rx="3.93" ry="3.93" style="fill:#e0e0e0"/><rect x="179.34" y="226.66" width="29.09" height="2.18" style="fill:#fafafa"/><rect x="179.34" y="238.99" width="50.96" height="2.18" style="fill:#fafafa"/><rect x="179.34" y="232.67" width="73.85" height="2.18" style="fill:#fafafa"/><path d="M175.77,251.46a1.91,1.91,0,1,1-1.91-1.91A1.92,1.92,0,0,1,175.77,251.46Z" transform="translate(-12.63 -17.72)" style="fill:#fafafa"/><rect x="145.93" y="253.53" width="118.15" height="30.86" rx="3.93" ry="3.93" style="fill:#e0e0e0"/><rect x="179.34" y="262.96" width="29.09" height="2.18" style="fill:#fafafa"/><rect x="179.34" y="275.28" width="50.96" height="2.18" style="fill:#fafafa"/><rect x="179.34" y="268.97" width="73.85" height="2.18" style="fill:#fafafa"/><path d="M175.77,287.76a1.91,1.91,0,1,1-1.91-1.91A1.91,1.91,0,0,1,175.77,287.76Z" transform="translate(-12.63 -17.72)" style="fill:#fafafa"/><rect x="145.93" y="180.93" width="118.15" height="30.86" rx="3.93" ry="3.93" style="fill:#e0e0e0"/><rect x="179.34" y="190.36" width="29.09" height="2.18" style="fill:#fafafa"/><rect x="179.34" y="202.69" width="50.96" height="2.18" style="fill:#fafafa"/><rect x="179.34" y="196.37" width="73.85" height="2.18" style="fill:#fafafa"/><path d="M175.77,215.16a1.91,1.91,0,1,1-1.91-1.91A1.92,1.92,0,0,1,175.77,215.16Z" transform="translate(-12.63 -17.72)" style="fill:#fafafa"/><rect x="145.93" y="144.63" width="118.15" height="30.86" rx="3.93" ry="3.93" style="fill:#e0e0e0"/><rect x="179.34" y="154.06" width="29.09" height="2.18" style="fill:#fafafa"/><rect x="179.34" y="166.39" width="50.96" height="2.18" style="fill:#fafafa"/><rect x="179.34" y="160.07" width="73.85" height="2.18" style="fill:#fafafa"/><path d="M175.77,178.86a1.91,1.91,0,1,1-1.91-1.9A1.92,1.92,0,0,1,175.77,178.86Z" transform="translate(-12.63 -17.72)" style="fill:#fafafa"/><polygon points="99.87 245.76 107.76 321.15 94.05 321.15 80.37 255.96 99.87 245.76" style="fill:#ffbe9d"/><path d="M87.14,226.3H63.24l5.08,43.9L32.58,320l7.29,9.32,39.69-41.26,8.27-8.88a9.37,9.37,0,0,0,2.49-7Z" transform="translate(-12.63 -17.72)" style="fill:#ffbe9d"/><path d="M88.19,256.32a2.07,2.07,0,0,1,.18.5c.1.33.24.82.4,1.46.32,1.28.75,3.14,1.13,5.47a42.9,42.9,0,0,1,.64,8.26,14.68,14.68,0,0,1-.94,4.86,15.84,15.84,0,0,1-3,4.33c-5,5.2-9.49,9.86-12.77,13.23l-3.92,4-1.08,1.06c-.25.24-.39.36-.4.34a2.33,2.33,0,0,1,.33-.41l1-1.13,3.79-4.08c3.29-3.47,7.74-8.15,12.65-13.34a15.32,15.32,0,0,0,3-4.18,14.26,14.26,0,0,0,.93-4.67,46,46,0,0,0-.52-8.19c-.34-2.32-.71-4.19-1-5.47l-.3-1.49A1.87,1.87,0,0,1,88.19,256.32Z" transform="translate(-12.63 -17.72)" style="fill:#eb996e"/><path d="M134.63,167.33h0l.42-.06a93.26,93.26,0,0,0,10.1-2c4.09-1.26,4-1.64,3.77-2.09-.58-1.23-7.26,1.94-6.2.42s8.6-2.92,7.94-4.18c-.86-1.63-7.8,1.82-8.41,2.07s-1-.63-.4-.83c.8-.28,9.18-3.42,8.35-5-.46-.89-2,.13-2,.13s-7.64,3.52-8,2.75,4.05-3,5.59-3.66,1.85-1.62,1-2.07c-.56-.31-5.32,1.55-6.83,2.22s-5.62,2.59-4.32,0c0,0,0-.09.05-.13,1.35-2.53,1.56-4.93,1.14-5.67a1,1,0,0,0-1.77.26,1,1,0,0,0-.1.4,1.66,1.66,0,0,0,0,.22,14.88,14.88,0,0,1-1.1,2.75,8,8,0,0,1-1.56,2.13c-.72.7-1.37,1.28-1.93,1.75L124.7,159l5.14,9.72,3.67-.71" transform="translate(-12.63 -17.72)" style="fill:#ffbe9d"/><path d="M112.4,161.41l19-6.26L135.75,169l-25.88,9.12a9.45,9.45,0,0,1-11.7-4.91l-4.38-16.86,13.3-10.06Z" transform="translate(-12.63 -17.72)" style="fill:#e8505b"/><path d="M72.57,124.11s-21.78-2.9-20,19.09c.58,7.33,3.85,17.8,6.22,23.63A9,9,0,0,1,59,173c-2.08,6.51-7.31,16.12-8.2,21.5l44.93,3.76L95.6,161l7.74-3.17,6.53-2.57c-8.6-36.28-24.6-31.6-24.6-31.6l-12.7.41" transform="translate(-12.63 -17.72)" style="fill:#e8505b"/><g style="opacity:0.2"><path d="M59.43,168.65c.43,3.33-1,6.28-2.46,9.67,0,0,6.33,14.82,12.25,15.48,5,.57,16.08,1.61,26.49,2.59l.35-8.4L53.52,149.07C54.3,154.21,56.71,160.77,59.43,168.65Z" transform="translate(-12.63 -17.72)"/></g><path d="M116,264.21c-10.72-22.22-19.59-46-20.26-70.67l.28-41.7-17.29,2-7.19,40.23-21,.45c-4.22,10-3.36,20.91-.49,30.89,3.36,11.71,10.59,23.05,8.68,35.08-.46,2.85-1.32,6.13.51,8.35,1.22,1.49,3.27,2,5.15,2.34,14.91,3,30.62,5.95,45.08,1.22a5.6,5.6,0,0,0,2.67-1.61C114.77,267.61,116.86,265.91,116,264.21Z" transform="translate(-12.63 -17.72)" style="fill:#263238"/><path d="M70.94,196.89a3.93,3.93,0,0,1-.35,2,7.67,7.67,0,0,1-7.81,5,4,4,0,0,1-2-.52c0-.08.77.14,2,.15a8,8,0,0,0,7.45-4.76C70.75,197.64,70.85,196.87,70.94,196.89Z" transform="translate(-12.63 -17.72)" style="fill:#455a64"/><path d="M94.76,139.2a3.5,3.5,0,0,1-.16,1c-.14.64-.35,1.57-.63,2.72l0-.14c.55.93,1.16,2.06,1.77,3.33a21,21,0,0,1,1.63,4.32,5.64,5.64,0,0,1,.11.92c0,.29,0,.58,0,.87,0,.57-.07,1.13-.13,1.67a28.63,28.63,0,0,1-.52,3,25.07,25.07,0,0,1-1.31,4.18V161a5,5,0,0,1-.12,1.38,6.29,6.29,0,0,1-.12-1.38h0v0a35.23,35.23,0,0,0,1.1-4.18c.18-.91.34-1.9.45-3,0-.53.09-1.08.11-1.64l0-.85a5.92,5.92,0,0,0-.1-.82,22.34,22.34,0,0,0-1.55-4.22c-.59-1.27-1.17-2.4-1.67-3.35l0-.07,0-.07c.33-1.13.6-2.05.8-2.68A3.62,3.62,0,0,1,94.76,139.2Z" transform="translate(-12.63 -17.72)" style="fill:#263238"/><path d="M85.76,156.48s-.13.53-.65,1.2a7.1,7.1,0,0,1-5.8,2.65A2.49,2.49,0,0,1,78,160a11.9,11.9,0,0,0,4.32-.82A11.91,11.91,0,0,0,85.76,156.48Z" transform="translate(-12.63 -17.72)" style="fill:#263238"/><path d="M59.76,126.28s12.8,9,19.34,27.54l2.9-.37S77.1,135,61.88,125.33A8.09,8.09,0,0,0,59.76,126.28Z" transform="translate(-12.63 -17.72)" style="fill:#263238"/><path d="M87.2,123.79s8,13.68,8.27,28.62H92.73s-3.19-23.14-9-28.91Z" transform="translate(-12.63 -17.72)" style="fill:#263238"/><path d="M82.38,153.4c.05,0,.31.38.54,1.13a2.92,2.92,0,0,1,.08,1.41,2,2,0,0,1-1.09,1.42,1.64,1.64,0,0,1-1.77-.38,2.44,2.44,0,0,1-.67-1.26c-.16-.77-.11-1.24,0-1.25s.16.46.4,1.15a2.33,2.33,0,0,0,.65,1,1.17,1.17,0,0,0,1.23.27,1.61,1.61,0,0,0,.83-1.06,3,3,0,0,0,0-1.22C82.43,153.89,82.3,153.43,82.38,153.4Z" transform="translate(-12.63 -17.72)" style="fill:#455a64"/><path d="M80.83,154.56c0,.07,0,.17,0,.29a.18.18,0,0,0,.08.12.24.24,0,0,0,.1,0c.06,0,.08,0,.09-.07a.23.23,0,0,0,0-.14c-.07-.1-.17-.13-.2-.19s.11-.23.39-.12a.51.51,0,0,1,.32.41.57.57,0,0,1-.34.59.58.58,0,0,1-.67-.13.52.52,0,0,1-.09-.52C80.58,154.5,80.82,154.5,80.83,154.56Z" transform="translate(-12.63 -17.72)" style="fill:#455a64"/><path d="M94.27,154.05c0,.07-.16.15-.43.12a1.49,1.49,0,0,1-1.25-1.49c0-.27.13-.41.19-.4s.15.57.56,1S94.26,153.91,94.27,154.05Z" transform="translate(-12.63 -17.72)" style="fill:#455a64"/><path d="M91,162.51a14.91,14.91,0,0,1-3.83.86,15,15,0,0,1-3.9.34,14.9,14.9,0,0,1,3.82-.86A15,15,0,0,1,91,162.51Z" transform="translate(-12.63 -17.72)" style="fill:#455a64"/><path d="M85.62,208.24a26.1,26.1,0,0,0,1.22,3.19c.79,1.94,1.88,4.63,3,7.62s2.17,5.71,2.9,7.69a25.15,25.15,0,0,0,1.26,3.17,3.71,3.71,0,0,0-.21-.9c-.15-.57-.4-1.38-.73-2.38-.65-2-1.61-4.76-2.78-7.75s-2.31-5.67-3.18-7.59c-.44-1-.81-1.73-1.07-2.25A3.6,3.6,0,0,0,85.62,208.24Z" transform="translate(-12.63 -17.72)" style="fill:#455a64"/><path d="M40.48,330.21l.91-.8L33,319.08l-3.79,3.31.51.65c2.26,2.87,11.7,14.44,13.87,15.78C46,340.31,40.48,330.21,40.48,330.21Z" transform="translate(-12.63 -17.72)" style="fill:#e8505b"/><g style="opacity:0.5"><path d="M32.46,325.92a4.55,4.55,0,0,0,1-3.13,4.45,4.45,0,0,0-1.32-3l-2.78,2.45Z" transform="translate(-12.63 -17.72)" style="fill:#fff"/></g><g style="opacity:0.5"><path d="M43,335.28S44.79,339,44,339s-10.8-11.27-14.77-16.65l.24-.18L41,335.53S42.5,334.72,43,335.28Z" transform="translate(-12.63 -17.72)" style="fill:#fff"/></g><path d="M29.32,322.05a.89.89,0,0,0,.13.19l.4.51,1.51,1.87c1.29,1.58,3.1,3.72,5.15,6.05s4,4.4,5.34,5.87l1.67,1.74.46.47a1,1,0,0,0,.16.15s0-.06-.14-.17l-.44-.49-1.63-1.77c-1.37-1.5-3.26-3.58-5.3-5.9s-3.87-4.46-5.18-6l-1.55-1.84-.42-.49A1.45,1.45,0,0,0,29.32,322.05Z" transform="translate(-12.63 -17.72)" style="fill:#263238"/><path d="M40.83,335.66a5.11,5.11,0,0,1,1.15-.42,5.07,5.07,0,0,1,1.24,0,2.12,2.12,0,0,0-2.39.41Z" transform="translate(-12.63 -17.72)" style="fill:#263238"/><path d="M39.73,331.42c0,.05.3,0,.66,0a1.53,1.53,0,0,0,.63-.18,1.56,1.56,0,0,0-.66,0A1.53,1.53,0,0,0,39.73,331.42Z" transform="translate(-12.63 -17.72)" style="fill:#263238"/><path d="M39.45,330.25s.24.1.54.14.56,0,.56,0-.24-.1-.54-.14S39.45,330.2,39.45,330.25Z" transform="translate(-12.63 -17.72)" style="fill:#263238"/><path d="M39.94,328.91s.14.29.39.58.48.5.51.47-.14-.29-.39-.58S40,328.88,39.94,328.91Z" transform="translate(-12.63 -17.72)" style="fill:#263238"/><path d="M40.44,328.16a1.33,1.33,0,0,0,.35.72,1.43,1.43,0,0,0,.6.53s-.22-.28-.48-.63S40.49,328.14,40.44,328.16Z" transform="translate(-12.63 -17.72)" style="fill:#263238"/><path d="M40.89,331a2.79,2.79,0,0,0,.57.63,4.87,4.87,0,0,0,.75.55,3.32,3.32,0,0,0,.5.25.5.5,0,0,0,.34,0,.33.33,0,0,0,.17-.32,1.56,1.56,0,0,0-1.62-1.15,1.54,1.54,0,0,0-.61.17c-.13.07-.19.13-.18.14a2,2,0,0,1,.8-.19,1.44,1.44,0,0,1,.83.23,1.38,1.38,0,0,1,.62.8c0,.17-.14.24-.31.18a2.23,2.23,0,0,1-.47-.22,5.41,5.41,0,0,1-.75-.51C41.13,331.22,40.91,331,40.89,331Z" transform="translate(-12.63 -17.72)" style="fill:#263238"/><path d="M41,331.19s.24,0,.51-.32a1.51,1.51,0,0,0,.31-.58.87.87,0,0,0-.14-.82.35.35,0,0,0-.47.06.9.9,0,0,0-.19.36,2.44,2.44,0,0,0-.12.64,1.25,1.25,0,0,0,.06.6s0-.23.05-.58a2.7,2.7,0,0,1,.15-.61c.06-.2.24-.48.41-.34a.72.72,0,0,1,.1.66,1.5,1.5,0,0,1-.25.54C41.21,331.08,41,331.16,41,331.19Z" transform="translate(-12.63 -17.72)" style="fill:#263238"/><path d="M32.21,319.86s.28.26.62.76a4.19,4.19,0,0,1,.75,2.18,4.24,4.24,0,0,1-.53,2.24c-.29.53-.56.79-.54.81s.08-.05.2-.17a3.73,3.73,0,0,0,.44-.58,4.12,4.12,0,0,0,.59-2.31,4,4,0,0,0-.82-2.24,2.93,2.93,0,0,0-.49-.53C32.3,319.9,32.22,319.85,32.21,319.86Z" transform="translate(-12.63 -17.72)" style="fill:#263238"/><path d="M34.52,326.32a7.75,7.75,0,0,0,1.15,1.57,7.28,7.28,0,0,0,1.4,1.34s-.58-.64-1.28-1.45S34.56,326.3,34.52,326.32Z" transform="translate(-12.63 -17.72)" style="fill:#263238"/><path d="M32.82,324.37s-.09.17-.18.37-.19.35-.16.38.2-.09.31-.32S32.86,324.37,32.82,324.37Z" transform="translate(-12.63 -17.72)" style="fill:#263238"/><path d="M33.09,322.83c-.05,0-.09.15-.11.35s0,.35.06.35.09-.15.1-.34S33.13,322.83,33.09,322.83Z" transform="translate(-12.63 -17.72)" style="fill:#263238"/><path d="M32.58,321.41s.09.17.17.36.09.37.14.37.1-.19,0-.43S32.6,321.38,32.58,321.41Z" transform="translate(-12.63 -17.72)" style="fill:#263238"/><path d="M32.12,320.49s0,.12,0,.23.11.19.15.17,0-.11,0-.22S32.16,320.48,32.12,320.49Z" transform="translate(-12.63 -17.72)" style="fill:#263238"/><path d="M120,339.21l0-1.22-13.31-.06.16,5,.82,0c3.66.07,18.59.11,21-.72C131.27,341.34,120,339.21,120,339.21Z" transform="translate(-12.63 -17.72)" style="fill:#e8505b"/><g style="opacity:0.5"><path d="M111.55,342.68a4.61,4.61,0,0,0-1.79-2.76,4.47,4.47,0,0,0-3.12-.85l.13,3.7Z" transform="translate(-12.63 -17.72)" style="fill:#fff"/></g><g style="opacity:0.5"><path d="M125.49,340.45s4,1,3.51,1.66-15.56,1.19-22.24.85v-.3l17.61-.47S124.72,340.51,125.49,340.45Z" transform="translate(-12.63 -17.72)" style="fill:#fff"/></g><path d="M106.57,342.66l.22,0h.66l2.4,0c2,0,4.84,0,7.94-.14s5.9-.27,7.93-.41l2.4-.18.65-.06.23,0h-.23l-.65,0-2.41.13c-2,.11-4.83.25-7.92.36s-5.91.16-7.94.19l-2.4,0h-.66A.89.89,0,0,0,106.57,342.66Z" transform="translate(-12.63 -17.72)" style="fill:#263238"/><path d="M124.39,342.39a5.11,5.11,0,0,1,.41-1.16,5.49,5.49,0,0,1,.78-1,2.15,2.15,0,0,0-1.19,2.11Z" transform="translate(-12.63 -17.72)" style="fill:#263238"/><path d="M120.42,340.55s.21-.21.4-.52a1.57,1.57,0,0,0,.26-.6s-.22.21-.4.52S120.38,340.53,120.42,340.55Z" transform="translate(-12.63 -17.72)" style="fill:#263238"/><path d="M119.33,340s.23-.12.45-.33.38-.41.34-.44-.23.11-.45.32S119.3,340,119.33,340Z" transform="translate(-12.63 -17.72)" style="fill:#263238"/><path d="M118.61,338.8c0,.05.31.07.69.06a1.55,1.55,0,0,0,.69-.09s-.31-.07-.7-.07A1.53,1.53,0,0,0,118.61,338.8Z" transform="translate(-12.63 -17.72)" style="fill:#263238"/><path d="M118.34,337.93a1.38,1.38,0,0,0,.78.2,1.31,1.31,0,0,0,.79-.14,5.63,5.63,0,0,0-.78,0A4.54,4.54,0,0,0,118.34,337.93Z" transform="translate(-12.63 -17.72)" style="fill:#263238"/><path d="M120.82,339.38a2.35,2.35,0,0,0,.85,0,4.77,4.77,0,0,0,.9-.23,3.23,3.23,0,0,0,.51-.23.47.47,0,0,0,.2-.28.33.33,0,0,0-.14-.33,1.57,1.57,0,0,0-2.17,1.1c0,.15,0,.23,0,.23a2.51,2.51,0,0,1,.36-.74,1.58,1.58,0,0,1,.71-.49,1.34,1.34,0,0,1,1,0c.13.09.09.25-.06.35a2.86,2.86,0,0,1-.47.22,6.8,6.8,0,0,1-.87.26C121.15,339.35,120.82,339.36,120.82,339.38Z" transform="translate(-12.63 -17.72)" style="fill:#263238"/><path d="M121.05,339.42a.82.82,0,0,0,.07-.59,1.33,1.33,0,0,0-.25-.62.86.86,0,0,0-.72-.4.33.33,0,0,0-.25.4.89.89,0,0,0,.16.37,2.17,2.17,0,0,0,.42.5,1.42,1.42,0,0,0,.49.33s-.17-.15-.41-.41a2.61,2.61,0,0,1-.38-.5c-.12-.17-.21-.49,0-.54s.44.18.57.34a1.44,1.44,0,0,1,.26.55A3.3,3.3,0,0,1,121.05,339.42Z" transform="translate(-12.63 -17.72)" style="fill:#263238"/><path d="M106.71,339s.38,0,1,0a4.3,4.3,0,0,1,2.16.81,4.23,4.23,0,0,1,1.39,1.83c.23.56.26.94.29.94a.82.82,0,0,0,0-.27,3.5,3.5,0,0,0-.17-.71,4,4,0,0,0-1.41-1.92,4.09,4.09,0,0,0-2.25-.79,3.52,3.52,0,0,0-.72,0A.76.76,0,0,0,106.71,339Z" transform="translate(-12.63 -17.72)" style="fill:#263238"/><path d="M113.17,341.35a8,8,0,0,0,1.94.11,7.74,7.74,0,0,0,1.92-.24c0-.05-.86,0-1.93.08S113.17,341.3,113.17,341.35Z" transform="translate(-12.63 -17.72)" style="fill:#263238"/><path d="M110.58,341.42s.08.18.17.38.15.36.2.36.06-.21-.06-.44S110.61,341.39,110.58,341.42Z" transform="translate(-12.63 -17.72)" style="fill:#263238"/><path d="M109.56,340.24s.06.17.2.3.28.22.31.18-.06-.16-.2-.3S109.59,340.21,109.56,340.24Z" transform="translate(-12.63 -17.72)" style="fill:#263238"/><path d="M108.14,339.73s.19,0,.39.1.34.16.37.13-.08-.21-.33-.28S108.13,339.69,108.14,339.73Z" transform="translate(-12.63 -17.72)" style="fill:#263238"/><path d="M107.14,339.51s.06.1.17.14.22,0,.23,0-.06-.11-.17-.15S107.15,339.47,107.14,339.51Z" transform="translate(-12.63 -17.72)" style="fill:#263238"/><path d="M89.38,87,92,104.68l4-.76a2.68,2.68,0,0,0,1.83-.87c.58-.85,0-2-.72-2.76s-1.66-1.37-1.93-2.37.26-2.11.26-3.17a5.52,5.52,0,0,0-1.13-3c-.61-.9-1.35-1.46-1.35-4.34" transform="translate(-12.63 -17.72)" style="fill:#263238"/><path d="M85.71,124.19c-.22-4.42-.37-9.07-.37-9.07s5.65-1.24,6.44-8.72C92.54,99.26,90.53,83,90.53,83h0a21.35,21.35,0,0,0-23.45,6.67h0l2.34,35.84a7.71,7.71,0,0,0,8.52,6.92h0A8.15,8.15,0,0,0,85.71,124.19Z" transform="translate(-12.63 -17.72)" style="fill:#ffbe9d"/><path d="M90.33,95.85a1,1,0,0,1-.87,1,.91.91,0,0,1-1-.81,1,1,0,0,1,.87-1A.91.91,0,0,1,90.33,95.85Z" transform="translate(-12.63 -17.72)" style="fill:#263238"/><path d="M90.57,94.7c-.11.13-.86-.36-1.89-.31s-1.74.61-1.86.49.05-.28.36-.54a2.65,2.65,0,0,1,1.49-.54,2.47,2.47,0,0,1,1.51.4C90.51,94.42,90.62,94.64,90.57,94.7Z" transform="translate(-12.63 -17.72)" style="fill:#263238"/><path d="M79.55,96.57a1,1,0,0,1-.87,1,.91.91,0,0,1-1-.81,1,1,0,0,1,.87-1A.91.91,0,0,1,79.55,96.57Z" transform="translate(-12.63 -17.72)" style="fill:#263238"/><path d="M79.9,95.63c-.11.13-.86-.37-1.89-.31s-1.74.6-1.86.48,0-.28.36-.53A2.58,2.58,0,0,1,78,94.72a2.54,2.54,0,0,1,1.51.4C79.84,95.35,80,95.57,79.9,95.63Z" transform="translate(-12.63 -17.72)" style="fill:#263238"/><path d="M84,103a6.5,6.5,0,0,1,1.65-.38c.26,0,.5-.11.54-.29a1.32,1.32,0,0,0-.22-.77l-.87-2a34.87,34.87,0,0,1-2-5.12,34.87,34.87,0,0,1,2.41,5c.3.68.58,1.34.85,2a1.57,1.57,0,0,1,.19,1,.69.69,0,0,1-.41.41,1.58,1.58,0,0,1-.44.08A6.58,6.58,0,0,1,84,103Z" transform="translate(-12.63 -17.72)" style="fill:#263238"/><path d="M85.34,115.12A18.88,18.88,0,0,1,75.27,113s2.67,5,10.07,3.9Z" transform="translate(-12.63 -17.72)" style="fill:#eb996e"/><path d="M80.86,105a3,3,0,0,1,1.11-.72,1,1,0,0,1,1.15.42c.07.16.13.36.29.38s.21-.07.33-.09.32.14.35.31a.84.84,0,0,1-.12.51,4.77,4.77,0,0,1-.5.84,2.15,2.15,0,0,1-.92.8,1.67,1.67,0,0,1-1.06.05,1.78,1.78,0,0,1-1.06-.75,1.37,1.37,0,0,1-.1-1.27,1.11,1.11,0,0,1,1-.67" transform="translate(-12.63 -17.72)" style="fill:#eb996e"/><path d="M81,103.9c.17,0,.23,1.09,1.22,1.83s2.17.56,2.19.71-.26.23-.76.27a2.8,2.8,0,0,1-1.82-.53,2.43,2.43,0,0,1-1-1.54C80.85,104.18,81,103.89,81,103.9Z" transform="translate(-12.63 -17.72)" style="fill:#263238"/><path d="M70.23,97.68a4.49,4.49,0,0,0-2.38.28,3.09,3.09,0,0,0-1.67,1.68,3.24,3.24,0,0,0,.1,2.37,5.52,5.52,0,0,0,1.46,1.93,3.76,3.76,0,0,0,1.49.88,1.79,1.79,0,0,0,1.64-.34" transform="translate(-12.63 -17.72)" style="fill:#ffbe9d"/><path d="M70,102.52c.09,0-.23.52-1,.36a1.52,1.52,0,0,1-.94-.73,3.53,3.53,0,0,1-.47-1.3,2.09,2.09,0,0,1,.27-1.42,1.4,1.4,0,0,1,1-.67c.74-.05,1,.45.92.47s-.36-.18-.84,0a1.33,1.33,0,0,0-.75,1.57c.13.82.48,1.55.93,1.71S70,102.45,70,102.52Z" transform="translate(-12.63 -17.72)" style="fill:#eb996e"/><path d="M88.68,81.05a5.4,5.4,0,0,1-2.09,6.13c-2,1.27-4.49,1.1-6.81,1.4s-5,1.55-5.22,3.87c-.16,1.41.62,2.91,0,4.21-.67,1.52-2.8,1.88-3.62,3.32-1.31,2.32,1.7,5.08,1.13,7.68l-15.33-2.78a4.86,4.86,0,0,1,2-3.62,9.32,9.32,0,0,0-3.53,3.19l-4.54-1.54a11.53,11.53,0,0,1,7.14-6.54c2.45-.79-1-5.16.17-7.44,1.35-2.58,6.11-1.33,7.46-3.91.49-.94.32-2.08.59-3.11.61-2.34,3.35-3.47,5.77-3.51s4.84.66,7.25.42c1.32-.13,2.59-.55,3.9-.76a6,6,0,0,1,3.88.44,2.94,2.94,0,0,1,1.5,3.35" transform="translate(-12.63 -17.72)" style="fill:#263238"/><path d="M86.81,86c1,2.58,2.49,6,5.14,6.82,1-1.18,1.15-5.07.94-6.89a8.73,8.73,0,0,0-2.13-5,5.46,5.46,0,0,0-5-1.71" transform="translate(-12.63 -17.72)" style="fill:#263238"/><path d="M59.81,105.17a1.06,1.06,0,0,1-.19-.42,3,3,0,0,1,0-1.34,5.74,5.74,0,0,1,.77-2c.42-.71,1-1.44,1.47-2.32A5.48,5.48,0,0,0,62.35,96a9.32,9.32,0,0,1,.22-3.89,2.9,2.9,0,0,1,1.49-1.63,8.74,8.74,0,0,1,2.15-.56,3.64,3.64,0,0,0,1.91-.79,4.21,4.21,0,0,0,1-1.89A17.5,17.5,0,0,1,69.85,85a6.71,6.71,0,0,1,1.3-1.92A6.16,6.16,0,0,1,75,81.16a11.78,11.78,0,0,1,3.86.54,14.56,14.56,0,0,0,3.24.57,4.41,4.41,0,0,0,2.54-.65A3.75,3.75,0,0,0,86,80.14a3.81,3.81,0,0,0,.33-1.69,1,1,0,0,1,.09.45,2.89,2.89,0,0,1-.23,1.32,4,4,0,0,1-1.35,1.65,4.72,4.72,0,0,1-2.7.76,13.56,13.56,0,0,1-3.34-.51,11.42,11.42,0,0,0-3.72-.48,5.81,5.81,0,0,0-3.56,1.77,6.53,6.53,0,0,0-1.19,1.78,17.82,17.82,0,0,0-.69,2.17,4.62,4.62,0,0,1-1.16,2.12,4.2,4.2,0,0,1-2.17.92,8.16,8.16,0,0,0-2,.5A2.37,2.37,0,0,0,63,92.25a8.93,8.93,0,0,0-.24,3.7,8.06,8.06,0,0,1-.08,1.78,4.82,4.82,0,0,1-.56,1.56c-.51.92-1.11,1.63-1.54,2.3a5.86,5.86,0,0,0-.82,1.86A3.72,3.72,0,0,0,59.81,105.17Z" transform="translate(-12.63 -17.72)" style="fill:#455a64"/><path d="M88.9,81.38a2.08,2.08,0,0,1-.12.4,6.06,6.06,0,0,1-.53,1.08,8.11,8.11,0,0,1-3.24,3,7.88,7.88,0,0,1-3,.83,21.79,21.79,0,0,1-3.49-.11,11.4,11.4,0,0,0-3.72.16,4.36,4.36,0,0,0-3,2.22c-.53,1.21-.37,2.63-.65,4a3.42,3.42,0,0,1-1,1.84,4.83,4.83,0,0,1-1.74.9,5,5,0,0,0-1.55.71A2.89,2.89,0,0,0,66,97.59a8.47,8.47,0,0,0-.44,2.89,7.17,7.17,0,0,1-.93,4.27,2.49,2.49,0,0,1-.91.8,1.14,1.14,0,0,1-.4.14,3.5,3.5,0,0,0,1.14-1,7.35,7.35,0,0,0,.73-4.17,8.61,8.61,0,0,1,.41-3,3.34,3.34,0,0,1,1-1.45,6.26,6.26,0,0,1,1.67-.8,4.36,4.36,0,0,0,1.56-.8,3,3,0,0,0,.8-1.58c.26-1.24.07-2.69.67-4.1a4.84,4.84,0,0,1,3.37-2.49,11.7,11.7,0,0,1,3.89-.15,22.68,22.68,0,0,0,3.42.16,7.51,7.51,0,0,0,2.83-.73,8.33,8.33,0,0,0,3.23-2.74C88.66,81.9,88.85,81.36,88.9,81.38Z" transform="translate(-12.63 -17.72)" style="fill:#455a64"/><path d="M94.68,92.32a15.29,15.29,0,0,0-.58-1.73,3.93,3.93,0,0,0-1.19-1.47,18.81,18.81,0,0,1-2-1.54,4.24,4.24,0,0,1-1.25-2.26c-.15-.77-.18-1.46-.26-2A14.86,14.86,0,0,0,89,81.52a2.89,2.89,0,0,1,.78,1.72c.26,1.12.21,2.82,1.5,4,.61.59,1.31,1,1.91,1.53a4,4,0,0,1,1.23,1.71A2.8,2.8,0,0,1,94.68,92.32Z" transform="translate(-12.63 -17.72)" style="fill:#455a64"/><path d="M79.91,93.33c-.14.26-.93.11-1.9.06s-1.77,0-1.88-.29.75-.82,1.94-.75S80.06,93.09,79.91,93.33Z" transform="translate(-12.63 -17.72)" style="fill:#263238"/><path d="M90.24,92.71c0,.29-.75.51-1.66.5s-1.65-.26-1.65-.55.75-.51,1.66-.49S90.24,92.42,90.24,92.71Z" transform="translate(-12.63 -17.72)" style="fill:#263238"/><rect x="91.08" y="145.69" width="43.54" height="43.54" rx="5.4" ry="5.4" transform="translate(-94.53 203.15) rotate(-71.36)" style="fill:#455a64"/><path d="M127,171.92a25.8,25.8,0,0,0,.6-3.51,14.47,14.47,0,0,0-2.5-9.14,14.28,14.28,0,0,0-12.16-6.22,13.24,13.24,0,0,0-4,.69,13.46,13.46,0,0,0-3.81,1.9,14.15,14.15,0,0,0-5.38,16,14.2,14.2,0,0,0,4.67,6.83,14.38,14.38,0,0,0,21-3.35,27.51,27.51,0,0,0,1.65-3.15,1.35,1.35,0,0,1-.06.23l-.23.65a6.89,6.89,0,0,1-.45,1,9.34,9.34,0,0,1-.74,1.35,14,14,0,0,1-2.73,3.21,14.71,14.71,0,0,1-4.84,2.79,14.54,14.54,0,0,1-6.73.67,14.82,14.82,0,0,1-7.14-3.06,14,14,0,0,1-2.9-3.08,13.82,13.82,0,0,1-2-4,14.65,14.65,0,0,1,5.57-16.52,14,14,0,0,1,4-2,13.81,13.81,0,0,1,4.18-.69,14.61,14.61,0,0,1,12.48,6.5,14.44,14.44,0,0,1,2.15,5.15,13.68,13.68,0,0,1,.24,4.21,9.79,9.79,0,0,1-.23,1.52,6.41,6.41,0,0,1-.27,1.09l-.21.66A.73.73,0,0,1,127,171.92Z" transform="translate(-12.63 -17.72)" style="fill:#fafafa"/><path d="M127.85,171.65a10.14,10.14,0,0,1-3.1-.78,9.68,9.68,0,0,1-2.93-1.26,9.94,9.94,0,0,1,3.1.77A9.69,9.69,0,0,1,127.85,171.65Z" transform="translate(-12.63 -17.72)" style="fill:#fafafa"/><path d="M108,180.82a19.64,19.64,0,0,1,2-6,9.94,9.94,0,0,1-.77,3.1A10.14,10.14,0,0,1,108,180.82Z" transform="translate(-12.63 -17.72)" style="fill:#fafafa"/><path d="M115.27,159.34a9.94,9.94,0,0,1,.77-3.1,9.55,9.55,0,0,1,1.27-2.93,10.29,10.29,0,0,1-.77,3.1A10,10,0,0,1,115.27,159.34Z" transform="translate(-12.63 -17.72)" style="fill:#fafafa"/><path d="M105.74,164.19a10.23,10.23,0,0,1-3.1-.77,10.14,10.14,0,0,1-2.94-1.27,10.25,10.25,0,0,1,3.11.77A9.69,9.69,0,0,1,105.74,164.19Z" transform="translate(-12.63 -17.72)" style="fill:#fafafa"/><path d="M122.11,162.21a27.4,27.4,0,0,1-4.73,2.63,27.56,27.56,0,0,1-5,2.17,28.39,28.39,0,0,1,4.73-2.63A28.25,28.25,0,0,1,122.11,162.21Z" transform="translate(-12.63 -17.72)" style="fill:#fafafa"/><path d="M118.6,169a10.59,10.59,0,0,1-3.13-.78,10.12,10.12,0,0,1-3-1.28,10.59,10.59,0,0,1,3.13.78A10.12,10.12,0,0,1,118.6,169Z" transform="translate(-12.63 -17.72)" style="fill:#fafafa"/><path d="M112.85,189.47l3.33,1.82c3.17,1.4,4.88,2.29,6.17,2,1.73-.45.77-2.37.77-2.37s2.6.48,3.14-1a1.53,1.53,0,0,0-.61-1.67s2.35.33,3.17-.25c1.14-.8.11-2.15.11-2.15,3.52-.14,4.18-1.87,3.67-2.37s-3.09-.71-3.09-.71c-2-.47-7.52-1.68-4.31-3.3s5-4.06,5.09-5.07a1.12,1.12,0,0,0-2-.57,12.81,12.81,0,0,1-2.86,2.21,8.56,8.56,0,0,1-2.69,1.11c-1.11.24-2.06.4-2.87.52l-4.54,1.19Z" transform="translate(-12.63 -17.72)" style="fill:#ffbe9d"/><path d="M54.23,145.21c1.6,6.63,7,18.56,12.23,28.34s13.3,12.07,13.3,12.07L116.08,193l2.78-16s-31.52-8.31-34.13-9l-17-33.12" transform="translate(-12.63 -17.72)" style="fill:#e8505b"/><path d="M55.45,130.23a3.45,3.45,0,0,1,.66-.28,8.23,8.23,0,0,1,2-.48,8.67,8.67,0,0,1,3.25.27,11,11,0,0,1,3.82,2,25.35,25.35,0,0,1,6.74,8.87c1.78,3.81,3.82,7.93,5.9,12.29l7.13,14.91-.15-.13,12.92,3.54,3.62,1,1,.29a1.13,1.13,0,0,1,.32.12,1.63,1.63,0,0,1-.34,0l-1-.23-3.66-.9-13-3.35-.1,0,0-.1c-2.11-4.38-4.57-9.47-7.19-14.88-2.07-4.36-4.11-8.51-5.85-12.3A25.44,25.44,0,0,0,65,132a11,11,0,0,0-3.68-2,8.77,8.77,0,0,0-3.15-.35A17.71,17.71,0,0,0,55.45,130.23Z" transform="translate(-12.63 -17.72)" style="fill:#263238"/></svg>